<svg xmlns="http://www.w3.org/2000/svg" width="220" height="40" fill="none"><path fill="#000" d="M213.191 18.301h-18c.582-2.306 2.372-3.88 5.734-3.88h17.224v-3.858h-18.323c-10.455 0-12.934 7.415-12.934 11.618h22.311c3.061 0 3.061 4.118.108 4.118H184.65V10.54h-7.415v15.758h-12.308c-3.299 0-4.678-1.574-4.678-4.031V10.54h-11.878l-10.648 6.704-9.162-6.704h-26.363c-7.63 0-13.063 4.462-13.688 10.045h4.958c-2.005 1.272-3.514 3.406-4.376 5.756H73.485c-2.931 0-4.311-1.53-4.311-4.42v-11.36h-7.437v9.68c0 6.143 3.363 10.002 10.907 10.002h51.972l10.692-6.726 9.183 6.704h10.994l-14.27-10.412 11.618-7.329V23.54c0 3.427 4.441 6.704 8.472 6.704h51.951c9.032 0 8.967-11.943-.044-11.943m-89.932 8.04H98.038c.258-2.112 1.358-4.203 4.807-4.203h15.649v-3.837H97.671c.367-1.595 1.983-3.858 5.734-3.858h16.534v-2.156l11.877 8.687-8.536 5.368Zm-69.066-6.574c0 3.73-1.207 6.489-1.962 7.847-.948 1.703-1.897 2.63-3.535 2.63H22.16c-6.553 0-9.528-4.075-6.618-9.097 2.738-4.678 8.536-12.675 11.77-16.685 1.616-1.983 1.12-2.306-.41-2.306-12.675-.022-22.742 8.32-22.742 17.59 0 10.066 8.881 17.352 22.936 17.352 5.799 0 12.61-1.077 17.827-5.777h4.613c-5.367 6.058-14.787 8.213-22.483 8.213C9.657 39.556 0 30.006 0 19.746 0 8.623 11.123 0 27.096 0c3.147 0 6.877.259 9.183.862 2.242.604 1.746 1.811 1.121 2.587-4.29 5.26-11.252 14.033-13.559 18.603-1.293 2.565-.431 3.6 2.436 3.6H47.51c1.703 0 2.587-2.932 2.587-6.165 0-6.467-3.277-12.524-11.36-15.844l1.207-1.81C48.588 5.28 54.235 12.2 54.235 19.745"/></svg>